<?xml version="1.0" encoding="UTF-8" standalone="no"?>
<svg
   viewBox="0 0 669.965 175.58425"
   version="1.1"
   id="svg12"
   width="6.9788027in"
   height="1.8290027in"
   xmlns:xlink="http://www.w3.org/1999/xlink"
   xmlns="http://www.w3.org/2000/svg"
   xmlns:svg="http://www.w3.org/2000/svg">
  <defs
     id="defs2">
    <style
       id="style1">.a{fill:url(#a);}.b{fill:#0cc988;}.c{fill:#361280;}</style>
    <linearGradient
       id="a"
       x1="17.572001"
       y1="7039.7822"
       x2="8.6960001"
       y2="7024.4092"
       gradientTransform="matrix(2.0278851,0,0,2.0278851,-55.070621,-14176.455)"
       gradientUnits="userSpaceOnUse">
      <stop
         offset="0"
         stop-color="#0aad75"
         id="stop1" />
      <stop
         offset="1"
         stop-color="#008c5c"
         id="stop2" />
    </linearGradient>
    <linearGradient
       xlink:href="#a"
       id="linearGradient2"
       gradientUnits="userSpaceOnUse"
       gradientTransform="matrix(2.0278851,0,0,2.0278851,-55.070621,-14176.455)"
       x1="17.572001"
       y1="7039.7822"
       x2="8.6960001"
       y2="7024.4092" />
  </defs>
  <g
     id="g2"
     transform="translate(55.011085,73.073326)">
    <g
       id="g4"
       style="display:inline">
      <g
         id="g3">
        <path
           class="a"
           d="m -17.992771,57.29437 v 41.166065 a 21.978218,21.978218 0 0 1 -30.823853,-5.47529 21.012945,21.012945 0 0 1 -3.041827,-6.489232 v 0 -0.202788 a 90.066485,90.066485 0 0 1 29.201544,-26.768082 c 1.41952,-0.608366 3.041827,-1.41952 4.664136,-2.230673 z"
           id="path2"
           style="display:inline;fill:url(#linearGradient2);stroke-width:2.02788" />
        <path
           class="b"
           d="m 26.823488,-70.867964 a 60.282937,60.282937 0 0 1 -32.4461613,42.180008 v 0 l -4.258558,1.825097 v 0 A 101.24824,101.24824 0 0 0 -47.397104,4.1637823 60.891304,60.891304 0 0 1 -5.8254623,-70.867964 a 61.519948,61.519948 0 0 1 32.6489503,0 z"
           id="path3"
           style="display:inline;stroke-width:2.02788" />
        <path
           class="b"
           d="M 55.011086,-21.995935 A 88.212998,88.212998 0 0 1 -5.4198843,52.224656 v 0 l -1.216731,0.405578 v 0 A 89.101212,89.101212 0 0 0 -52.06124,86.495913 88.492847,88.492847 0 0 1 55.011086,-21.995935 Z"
           id="path4"
           style="display:inline;stroke-width:2.02788" />
      </g>
      <g
         id="g1"
         style="display:none"
         transform="matrix(2.027885,0,0,2.027885,-55.070621,-73.074302)">
        <path
           class="c"
           d="m 73.884,46.588 h 16.7 v 8.1 h -16.7 v 18 h -8.5 v -43 h 27.2 v 8.2 h -18.7 z"
           id="path5" />
        <path
           class="c"
           d="m 106.284,29.688 v 43 h -8.2 v -43 z"
           id="path6" />
        <path
           class="c"
           d="m 127.184,43.888 c 8.5,0 15.3,6.3 15.3,14.7 0,8.4 -6.9,14.8 -15.4,14.8 -8.5,0 -15.3,-6.2 -15.3,-14.6 0,-8.4 6.9,-14.9 15.4,-14.9 z m 0,21.9 a 7.2,7.2 0 1 0 -7,-7.4 v 0.2 a 6.9,6.9 0 0 0 6.5,7.2 z"
           id="path7" />
        <path
           class="c"
           d="m 165.484,52.588 a 22.752,22.752 0 0 0 -2.6,-0.2 c -3.9,0 -6.7,2.8 -6.7,8 v 12.3 h -8.1 v -28.1 h 7.8 v 4.1 h 0.1 a 7.578,7.578 0 0 1 7.3,-4.4 8.329,8.329 0 0 1 2.2,0.3 z"
           id="path8" />
        <path
           class="c"
           d="m 174.384,29.588 a 5.1,5.1 0 1 1 -5,5.2 v -0.1 a 5.167,5.167 0 0 1 5,-5.1 z m -4,43.1 h 8.2 v -28.1 h -8.2 z"
           id="path9" />
        <path
           class="c"
           d="m 206.384,69.088 h -0.1 c -2.6,3.9 -6.9,4.1 -8.8,4.1 -8.2,0 -13.4,-7.1 -13.4,-14.7 0,-7.1 5.4,-14.6 13.6,-14.6 a 10.568,10.568 0 0 1 8.4,3.8 h 0.1 v -18 h 8.2 v 43 h -8 z m -7,-17.7 a 7.2,7.2 0 1 0 7,7.4 v -0.2 a 6.987,6.987 0 0 0 -6.6,-7.2 c -0.1,0.1 -0.2,0 -0.4,0 z"
           id="path10" />
        <path
           class="c"
           d="m 219.884,64.888 v -0.2 c 0,-6.7 6.9,-8.6 12.4,-8.6 h 2.8 c 1.5,0 2.2,-0.8 2.2,-1.9 0,-1.8 -1.5,-3.5 -4.5,-3.5 a 4.869,4.869 0 0 0 -5,3.8 l -7.2,-1.6 c 1,-6 6.8,-8.9 12.6,-8.9 7,0 12.2,3.8 12.2,11.4 v 12.9 c 0,1.5 0.1,3 0.2,4.5 h -7.6 c -0.1,-1.2 -0.2,-2.3 -0.2,-3.5 h -0.1 a 9.89,9.89 0 0 1 -8.4,4.1 c -4.9,-0.1 -9.4,-3.3 -9.4,-8.5 z m 17.3,-3 v -0.6 h -4.9 c -1.7,0 -4.1,1 -4.1,3.2 0,2 1.7,2.9 3.4,2.9 a 5.341,5.341 0 0 0 5.6,-5 z"
           id="path11" />
        <path
           class="c"
           d="m 259.084,69.688 -11.9,-25.2 h 9 l 7.1,16.1 6.3,-16.1 h 8.5 l -17.1,42 h -8.8 z"
           id="path12" />
      </g>
      <path
         d="M 95.306396,75.877869 V 38.813523 H 131.37573 V 23.639529 H 95.306396 V 3.4904553 H 135.10704 V -12.181047 H 77.520485 v 88.058916 z m 66.541804,0 v -91.790226 h -16.79089 v 91.790226 z m 42.7857,1.492524 c 18.28341,0 31.46738,-12.562077 31.46738,-30.721119 0,-18.159042 -13.18397,-30.721119 -31.46738,-30.721119 -18.28342,0 -31.46738,12.562077 -31.46738,30.721119 0,18.159042 13.18396,30.721119 31.46738,30.721119 z m 0,-15.920256 c -8.45764,0 -14.42774,-5.721342 -14.42774,-14.800863 0,-8.955144 5.9701,-14.800863 14.42774,-14.800863 8.45763,0 14.42773,5.845719 14.42773,14.800863 0,9.079521 -5.9701,14.800863 -14.42773,14.800863 z m 59.45227,14.427732 V 48.266175 c 0,-8.955144 5.09945,-13.930224 12.31332,-13.930224 h 6.34323 V 17.171925 c -1.24377,-0.497508 -2.7363,-0.621885 -4.3532,-0.621885 -6.59198,0 -11.81581,3.358179 -14.67649,10.323291 h -0.4975 v -9.452652 h -15.92026 v 58.45719 z m 45.27327,0 v -58.45719 h -16.7909 v 58.45719 z M 301.02618,6.8486343 c 5.84572,0 9.57703,-3.855687 9.57703,-9.079521 0,-5.3482109 -3.73131,-9.2038983 -9.57703,-9.2038983 -5.84572,0 -9.70141,3.8556874 -9.70141,9.2038983 0,5.223834 3.85569,9.079521 9.70141,9.079521 z m 51.11893,70.5217587 c 13.43272,0 23.63163,-6.467604 27.48732,-18.532173 l -15.04962,-5.099457 c -2.23878,5.099457 -6.34323,7.711374 -12.4377,7.711374 -8.45763,0 -14.42773,-5.721342 -14.42773,-14.800863 0,-8.955144 5.9701,-14.800863 14.42773,-14.800863 6.09447,0 10.19892,2.736294 12.4377,7.835751 l 15.04962,-5.223834 c -3.85569,-12.064569 -14.0546,-18.532173 -27.48732,-18.532173 -18.28342,0 -31.46738,12.562077 -31.46738,30.721119 0,18.159042 13.18396,30.721119 31.46738,30.721119 z m 54.22845,-1.492524 v -91.790226 h -16.79089 v 91.790226 z m 42.78568,1.492524 c 18.28342,0 31.46738,-12.562077 31.46738,-30.721119 0,-18.159042 -13.18396,-30.721119 -31.46738,-30.721119 -18.28342,0 -31.46738,12.562077 -31.46738,30.721119 0,18.159042 13.18396,30.721119 31.46738,30.721119 z m 0,-15.920256 c -8.45764,0 -14.42773,-5.721342 -14.42773,-14.800863 0,-8.955144 5.97009,-14.800863 14.42773,-14.800863 8.45764,0 14.42773,5.845719 14.42773,14.800863 0,9.079521 -5.97009,14.800863 -14.42773,14.800863 z m 71.14374,15.920256 c 13.43271,0 23.63163,-6.467604 27.48732,-18.532173 l -15.04962,-5.099457 c -2.23879,5.099457 -6.34323,7.711374 -12.4377,7.711374 -8.45764,0 -14.42773,-5.721342 -14.42773,-14.800863 0,-8.955144 5.97009,-14.800863 14.42773,-14.800863 6.09447,0 10.19891,2.736294 12.4377,7.835751 l 15.04962,-5.223834 c -3.85569,-12.064569 -14.05461,-18.532173 -27.48732,-18.532173 -18.28342,0 -31.46738,12.562077 -31.46738,30.721119 0,18.159042 13.18396,30.721119 31.46738,30.721119 z m 94.65095,-1.492524 -24.3779,-31.716135 23.13413,-26.741055 H 594.05859 L 574.5314,40.430424 V -15.912357 H 557.74051 V 75.877869 H 574.5314 V 50.007453 l 19.77594,25.870416 z"
         id="text12"
         style="font-weight:bold;font-size:124.377px;font-family:Protofo;-inkscape-font-specification:'Protofo, Bold';text-align:center;text-anchor:middle;fill:#361280;fill-rule:evenodd;stroke-width:9.90246;stroke-linecap:round;stroke-linejoin:round;paint-order:stroke fill markers"
         aria-label="Floriclock" />
    </g>
  </g>
</svg>
